# xmcd
#
# Track frame offsets:
#	150
#	12544
#	27139
#	43827
#	58058
#	76059
#	97741
#	115676
#	128402
#	154183
#	175282
#	201803
#	220879
#	229700
#	248805
#	266002
#	284373
#
# Disc length: 4127 seconds
#
# Revision: 1
# Processed by: cddbd v1.5.2PL0 Copyright (c) Steve Scherf et al.
# Submitted via: audiograbber 1.83.01
#
DISCID=e0101d11
DTITLE=Okwerdz - Random Acts Of Music
DYEAR=2005
DGENRE=Rap
TTITLE0=Okwerdz - Welcome Bitches
TTITLE1=Okwerdz - Don't Judge A Book By Its Cover
TTITLE2=Okwerdz - Time For A Change
TTITLE3=Okwerdz, Tech N9ne - Like It Or Not
TTITLE4=Okwerdz - Wake Up
TTITLE5=Okwerdz, Mac Lethal, Ex-I - I Don't Need You
TTITLE6=Okwerdz, A-Train - Freestyle Part 1
TTITLE7=Okwerdz - Only Time Will Tell
TTITLE8=Okwerdz, J.U.I.C.E. - No Further Ado
TTITLE9=Okwerdz - Takin' Over
TTITLE10=Okwerdz - Monica
TTITLE11=Okwerdz - Girlfriend Application
TTITLE12=Okwerdz, A-Train - Freestyle Part 2
TTITLE13=Okwerdz - Do You Wanna Fight
TTITLE14=Okwerdz, Chino XL, Frankie Riptide - Snatch Yo Life
TTITLE15=Okwerdz - Drugs Women And Racism
TTITLE16=Okwerdz - Serial Killer
EXTD=Cashflow420.com
EXTT0=
EXTT1=
EXTT2=
EXTT3=
EXTT4=
EXTT5=
EXTT6=
EXTT7=
EXTT8=
EXTT9=
EXTT10=
EXTT11=
EXTT12=
EXTT13=
EXTT14=
EXTT15=
EXTT16=
PLAYORDER=
